<?xml version="1.0" encoding="UTF-8"?>
<svg id="Layer_2" data-name="Layer 2" xmlns="http://www.w3.org/2000/svg" viewBox="0 0 138.48 26.88">
  <defs>
    <style>
      .cls-1 {
        fill-rule: evenodd;
      }

      .cls-1, .cls-2 {
        fill: #fff;
      }
    </style>
  </defs>
  <g id="Layer_1-2" data-name="Layer 1">
    <g>
      <path class="cls-1" d="M8.05,2.98c-.45.04-.9-.13-1.22-.48L4.95.48C4.63.14,4.17-.04,3.73,0L0,.38v5.22l8.17-.82c.45-.04.9.13,1.22.48l1.88,2.02c.32.34.78.52,1.22.48l21.49-2.16V.38L8.05,2.98Z"/>
      <path class="cls-1" d="M16.94,12.54c-.45.04-.9-.13-1.22-.48l-1.88-2.02c-.32-.34-.78-.52-1.22-.48L0,10.83v5.22l17.05-1.71c.45-.04.9.13,1.22.48l1.88,2.02c.32.34.78.52,1.22.48l12.61-1.26v-5.22l-17.05,1.71Z"/>
      <path class="cls-1" d="M24.6,21.61l-1.88-2.02c-.32-.34-.78-.52-1.22-.48L0,21.27v5.22l25.94-2.6c.45-.04.9.13,1.22.48l1.88,2.02c.32.34.78.52,1.22.48l3.73-.37v-5.22l-8.17.82c-.45.04-.9-.13-1.22-.48Z"/>
    </g>
    <g>
      <path class="cls-2" d="M47.87,1.39h3.48v12.58h-3.48V1.39Z"/>
      <path class="cls-2" d="M57.48,13.28c-1.32-.7-2.02-1.86-2.09-3.48h3.62c0,.65.33,1.14,1,1.45s1.75.47,3.27.47c.98,0,1.74-.05,2.29-.15.55-.1.93-.24,1.15-.44.22-.19.33-.45.33-.78,0-.36-.14-.63-.43-.81-.29-.18-.69-.31-1.22-.38-.53-.07-1.37-.14-2.52-.21l-.37-.02c-1.65-.1-2.98-.31-3.98-.61s-1.72-.73-2.18-1.29c-.46-.56-.69-1.29-.69-2.18,0-1.25.61-2.18,1.82-2.81,1.21-.63,2.92-.94,5.14-.94,2.42,0,4.27.36,5.53,1.09,1.26.73,1.93,1.8,1.98,3.22h-3.6c0-.63-.32-1.07-.97-1.33-.65-.26-1.66-.38-3.03-.38-1.21,0-2.06.09-2.54.28-.48.19-.73.48-.73.87,0,.35.14.61.43.79.29.18.71.31,1.27.39.56.08,1.42.17,2.59.26,1.72.13,3.07.29,4.03.5.96.2,1.72.57,2.26,1.1.55.53.82,1.31.82,2.33,0,1.48-.61,2.53-1.83,3.15s-3.03.94-5.44.94c-2.61,0-4.58-.35-5.9-1.05Z"/>
      <path class="cls-2" d="M80.12,1.39h4.49l6.66,12.58h-3.83l-1.22-2.53h-7.72l-1.22,2.53h-3.83l6.68-12.58ZM84.99,8.91l-2.64-5.49-2.64,5.49h5.28Z"/>
      <path class="cls-2" d="M94.79,1.39h3.48v12.58h-3.48V1.39Z"/>
      <path class="cls-2" d="M108.46,1.39h4.49l6.66,12.58h-3.83l-1.22-2.53h-7.72l-1.22,2.53h-3.83l6.68-12.58ZM113.34,8.91l-2.64-5.49-2.64,5.49h5.28Z"/>
      <path class="cls-2" d="M135,9.13h-8.39v4.84h-3.48V1.39h3.48v4.82h8.39V1.39h3.48v12.58h-3.48v-4.84Z"/>
    </g>
    <g>
      <path class="cls-2" d="M47.34,22.34c0-2.01,1.68-3.31,4.04-3.31,2.12,0,3.67,1.08,3.86,2.54h-1.23c-.15-.76-1.11-1.56-2.62-1.56-1.71,0-2.82.97-2.82,2.32s1.12,2.33,2.82,2.33c1.51,0,2.47-.8,2.62-1.57h1.23c-.17,1.47-1.74,2.57-3.86,2.57-2.37,0-4.04-1.31-4.04-3.32Z"/>
      <path class="cls-2" d="M63.74,22.83h-4.97v2.65h-1.17v-6.29h1.17v2.65h4.97v-2.65h1.17v6.29h-1.17v-2.65Z"/>
      <path class="cls-2" d="M67.47,22.41v-3.23h1.17v3.19c0,1.15.45,2.28,2.45,2.28s2.44-1.15,2.44-2.28v-3.19h1.17v3.23c0,1.92-.93,3.24-3.61,3.24s-3.62-1.32-3.62-3.24Z"/>
      <path class="cls-2" d="M77.26,19.19h4.75c1.64,0,2.41.63,2.41,1.81,0,.86-.45,1.42-1.28,1.64.93.03,1.23.39,1.23,1.19v1.65h-1.16v-1.5c0-.57-.28-.8-.84-.8h-3.94v2.3h-1.17v-6.29ZM81.76,22.22c.94,0,1.45-.3,1.45-1.07s-.51-1.01-1.45-1.01h-3.33v2.08h3.33Z"/>
      <path class="cls-2" d="M86.71,22.34c0-2.01,1.68-3.31,4.04-3.31,2.12,0,3.67,1.08,3.86,2.54h-1.23c-.15-.76-1.11-1.56-2.62-1.56-1.71,0-2.82.97-2.82,2.32s1.12,2.33,2.82,2.33c1.51,0,2.47-.8,2.62-1.57h1.23c-.17,1.47-1.74,2.57-3.86,2.57-2.37,0-4.04-1.31-4.04-3.32Z"/>
      <path class="cls-2" d="M103.11,22.83h-4.97v2.65h-1.17v-6.29h1.17v2.65h4.97v-2.65h1.17v6.29h-1.17v-2.65Z"/>
    </g>
  </g>
</svg>